<svg width="50px" height="50px" viewBox="0 0 803 184" fill="none" xmlns="http://www.w3.org/2000/svg">
    <g clip-path="url(#clip0_1_2)">
      <path d="M795.34 181.88H745.7C745.07 181.88 744.45 181.72 743.91 181.41L731.42 174.32C730.87 174.01 730.26 173.85 729.63 173.85H668.53C667.9 173.85 667.28 174.01 666.74 174.32L654.25 181.41C653.7 181.72 653.09 181.88 652.46 181.88H602.82C599.11 181.88 597.79 176.96 601.01 175.11L634.93 155.59C635.48 155.27 636.1 155.11 636.74 155.11H761.44C762.08 155.11 762.7 155.28 763.25 155.59L797.17 175.11C800.39 176.96 799.07 181.88 795.36 181.88H795.34Z" fill="#8800FF"></path>
      <path d="M796.79 165.65L763.9 146.71C763.35 146.4 762.9 145.94 762.58 145.4L756.38 134.82C756.06 134.28 755.89 133.66 755.88 133.04L755.69 118.68C755.69 118.05 755.51 117.44 755.19 116.9L724.31 64.17C723.99 63.63 723.54 63.18 723 62.86L710.57 55.67C710.03 55.36 709.57 54.91 709.26 54.36L703.86 45.15C703.53 44.59 703.36 43.96 703.36 43.32V4.45C703.36 0.739996 708.27 -0.580003 710.13 2.63L801.75 160.69C803.61 163.9 800.02 167.51 796.8 165.65H796.79Z" fill="#8800FF"></path>
      <path d="M601.36 165.65L634.25 146.71C634.8 146.4 635.25 145.94 635.57 145.4L641.77 134.82C642.09 134.28 642.26 133.66 642.27 133.04L642.46 118.68C642.46 118.05 642.64 117.44 642.96 116.9L673.84 64.17C674.16 63.63 674.61 63.18 675.15 62.86L687.58 55.67C688.12 55.36 688.58 54.91 688.89 54.36L694.29 45.15C694.62 44.59 694.79 43.96 694.79 43.32V4.45C694.79 0.739996 689.88 -0.580003 688.02 2.63L596.4 160.69C594.54 163.9 598.13 167.51 601.35 165.65H601.36Z" fill="#8800FF"></path>     
    </g>
    <defs>
      <clipPath id="clip0_1_2">
        <rect width="802.25" height="183.92" fill="white"></rect>
      </clipPath>
    </defs>
  </svg>