<svg width="54" height="28" xmlns="http://www.w3.org/2000/svg" fill="none">
 <!-- SVG paths here -->
 <defs>
  <clipPath id="clip0_1_2">
   <rect width="802.25" height="183.92" fill="white" id="svg_1"/>
  </clipPath>
 </defs>
 <g>
  <title>Layer 1</title>
  <g clip-path="url(#clip0_1_2)" id="svg_2" stroke="null">
   <path d="m53.30061,24.5079l-6.24904,0c-0.07931,0 -0.15736,-0.02156 -0.22534,-0.06333l-1.57233,-0.95531c-0.06924,-0.04177 -0.14603,-0.06333 -0.22534,-0.06333l-7.6917,0c-0.07931,0 -0.15736,0.02156 -0.22534,0.06333l-1.57233,0.95531c-0.06924,0.04177 -0.14603,0.06333 -0.22534,0.06333l-6.24904,0c-0.46704,0 -0.63321,-0.66292 -0.22786,-0.91219l4.27009,-2.63013c0.06924,-0.04312 0.14729,-0.06468 0.22786,-0.06468l15.69812,0c0.08057,0 0.15862,0.02291 0.22786,0.06468l4.27009,2.63013c0.40536,0.24927 0.23919,0.91219 -0.22786,0.91219l-0.00252,0l0.00002,0z" fill="#8800FF" id="svg_3" stroke="null"/>
   <path d="m53.48314,22.32106l-4.14043,-2.55198c-0.06924,-0.04177 -0.12589,-0.10375 -0.16617,-0.17651l-0.7805,-1.42555c-0.04028,-0.07276 -0.06168,-0.1563 -0.06294,-0.23984l-0.02392,-1.93487c0,-0.08489 -0.02266,-0.16708 -0.06294,-0.23984l-3.88739,-7.10485c-0.04028,-0.07276 -0.09693,-0.13339 -0.16491,-0.17651l-1.56478,-0.96878c-0.06798,-0.04177 -0.12589,-0.1024 -0.16491,-0.17651l-0.67979,-1.24096c-0.04154,-0.07545 -0.06294,-0.16034 -0.06294,-0.24657l0,-5.23735c0,-0.49989 0.61811,-0.67774 0.85226,-0.24523l11.53378,21.29704c0.23415,0.43252 -0.21778,0.91893 -0.62314,0.66831l-0.00126,0l-0.00002,0z" fill="#8800FF" id="svg_4" stroke="null"/>
   <path d="m28.88102,22.32106l4.14043,-2.55198c0.06924,-0.04177 0.12589,-0.10375 0.16617,-0.17651l0.7805,-1.42555c0.04028,-0.07276 0.06168,-0.1563 0.06294,-0.23984l0.02392,-1.93487c0,-0.08489 0.02266,-0.16708 0.06294,-0.23984l3.88739,-7.10485c0.04028,-0.07276 0.09693,-0.13339 0.16491,-0.17651l1.56478,-0.96878c0.06798,-0.04177 0.12589,-0.1024 0.16491,-0.17651l0.67979,-1.24096c0.04154,-0.07545 0.06294,-0.16034 0.06294,-0.24657l0,-5.23735c0,-0.49989 -0.61811,-0.67774 -0.85226,-0.24523l-11.53378,21.29704c-0.23415,0.43252 0.21778,0.91893 0.62314,0.66831l0.00126,0l0.00002,0z" fill="#8800FF" id="svg_5" stroke="null"/>
   <path d="m22.8397,24.44592l-3.5966,0l-1.38224,-1.74893c-1.89586,1.39052 -4.05231,2.08443 -6.47186,2.08443c-1.59247,0 -3.09179,-0.31933 -4.50046,-0.958c-1.40868,-0.63867 -2.61593,-1.51044 -3.62051,-2.61396c-1.00584,-1.10352 -1.80144,-2.42667 -2.38808,-3.9681c-0.58663,-1.54143 -0.87995,-3.17987 -0.87995,-4.91802c0,-2.28654 0.49474,-4.37097 1.48421,-6.25464c0.98947,-1.88367 2.35661,-3.36446 4.10014,-4.44643c1.74354,-1.08196 3.67842,-1.62227 5.8034,-1.62227c1.58114,0 3.07542,0.31664 4.4841,0.94992c1.40868,0.63328 2.61719,1.49562 3.62807,2.58836c1.01087,1.09274 1.809,2.40107 2.39563,3.92498c0.58663,1.52391 0.87995,3.14349 0.87995,4.85873c0,3.28362 -0.95297,6.08622 -2.8589,8.40644l2.92184,3.71613l0.00126,0.00135l0,0.00001zm-11.45069,-2.85784c1.67556,0 3.16732,-0.48237 4.47655,-1.44576l-5.34013,-6.85962l3.56512,0l3.77032,4.82505c1.15187,-1.65865 1.72717,-3.58678 1.72717,-5.78305c0,-1.68156 -0.35878,-3.22164 -1.07633,-4.62294c-0.71756,-1.4013 -1.70451,-2.50213 -2.96087,-3.30383c-1.25635,-0.8017 -2.64363,-1.20188 -4.16309,-1.20188c-1.51946,0 -2.90547,0.40153 -4.16183,1.20188c-1.25635,0.8017 -2.24331,1.90253 -2.96087,3.30383c-0.71756,1.4013 -1.07633,2.94273 -1.07633,4.62294c0,2.61127 0.78805,4.80888 2.36416,6.59014c1.57611,1.78261 3.52106,2.67325 5.83487,2.67325l0.00126,0l0,-0.00001z" fill="white" id="svg_6" stroke="null"/>
  </g>
 </g>
</svg>